<svg xmlns="http://www.w3.org/2000/svg" viewBox="0 0 240.4 162.02">
  <style>.text{fill:#fff;}.plus{fill:#c1ac6a;}</style>
  <title>Behanced</title>
  <path class="text" d="M0,160v-8.4c13.4-1.4,14.6-3,14.6-13.4V41.42C14.6,31,13.4,29.42,0,28v-8.4H72.6c31,0,49.2,11.8,49.2,35,0,20.2-18.2,30.4-37.6,32.4,26.6.8,46.6,13,46.6,35,0,25.8-19.4,38-56.2,38ZM53.8,29v53.2h5c17,0,25.8-9.2,25.8-27.2,0-17.8-10-26-26-26Zm0,64v44c0,10.8,3.6,13.6,14,13.6h1.6c13.8,0,23.4-9.2,23.4-29.2,0-18.2-10-28.4-30.2-28.4Z"/>
  <path class="text" d="M239.6,94v5H175.8c-.4,23.8,12.8,38.6,31,38.6,12.8,0,22.2-4.6,29.8-14.6l3.8,2.4c-5.4,22-20.8,36.6-46,36.6-29.6,0-52-19.8-52-53.4,0-35.6,24.6-58.4,53.4-58.4C224.8,50.22,239.6,68.62,239.6,94ZM176,89.82h32c0-19.4-3.8-31.2-14.6-31.2C182.4,58.62,177,71.22,176,89.82Z"/>
  <path class="plus" d="M197.52,0V18.7h18.8v6.9h-18.8V44.3h-6.7V25.6H172V18.7h18.8V0Z"/>
</svg>
