<svg xmlns="http://www.w3.org/2000/svg" viewBox="0 0 152.44 44.93">
  <style>.text{fill:#fff;}</style>
  <title>Powered by Behance</title>
  <path id="path12" class="text" d="M13.1,16.63a13.7,13.7,0,0,1,3.6.4,7.82,7.82,0,0,1,2.8,1.1,4.63,4.63,0,0,1,1.8,2.1,7.94,7.94,0,0,1,.6,3.2,5.58,5.58,0,0,1-1,3.5,7.24,7.24,0,0,1-2.8,2.3,6.69,6.69,0,0,1,3.8,2.6,7.88,7.88,0,0,1,1.3,4.4,8,8,0,0,1-.8,3.6,6.65,6.65,0,0,1-2.2,2.5,10.36,10.36,0,0,1-3.2,1.4,14.87,14.87,0,0,1-3.6.5H0V16.63Zm-.8,11.2A4.55,4.55,0,0,0,15,27a2.92,2.92,0,0,0,1-2.5,3.81,3.81,0,0,0-.3-1.6,2.84,2.84,0,0,0-.9-1,5,5,0,0,0-1.3-.5,8.08,8.08,0,0,0-1.6-.1H6.1v6.5Zm.3,11.8a8.81,8.81,0,0,0,1.7-.2,3.51,3.51,0,0,0,1.4-.6,3.57,3.57,0,0,0,1-1.1,4.78,4.78,0,0,0,.4-1.8,3.85,3.85,0,0,0-1.2-3.1,5.27,5.27,0,0,0-3.2-.9H6.1v7.7Z"/>
  <path id="path14" class="text" d="M31.9,39.53a4.89,4.89,0,0,0,3.6,1.2,5.47,5.47,0,0,0,2.9-.8,4,4,0,0,0,1.5-1.8h4.9a9.75,9.75,0,0,1-3.6,5.2,10.68,10.68,0,0,1-5.8,1.6,11.76,11.76,0,0,1-4.3-.8,8,8,0,0,1-3.2-2.2,7.93,7.93,0,0,1-2-3.3,11.76,11.76,0,0,1-.7-4.3,11.58,11.58,0,0,1,.7-4.2,10.78,10.78,0,0,1,2.1-3.4,10.16,10.16,0,0,1,3.2-2.2,11.22,11.22,0,0,1,4.2-.8,9.33,9.33,0,0,1,4.5,1,8.12,8.12,0,0,1,3.1,2.7,12.12,12.12,0,0,1,1.8,3.8,21,21,0,0,1,.2,4.4H30.5A5.75,5.75,0,0,0,31.9,39.53ZM38.2,29a4.33,4.33,0,0,0-3.1-1.1,4.77,4.77,0,0,0-2.2.5,5.26,5.26,0,0,0-1.4,1.1,2.67,2.67,0,0,0-.7,1.4,6.88,6.88,0,0,0-.2,1.3h9A5.3,5.3,0,0,0,38.2,29Z"/>
  <path id="path16" class="text" d="M52.8,16.63V27h.1a5.89,5.89,0,0,1,2.7-2.5,7.56,7.56,0,0,1,3.2-.8,9,9,0,0,1,3.6.6A5.43,5.43,0,0,1,64.6,26a6.82,6.82,0,0,1,1.1,2.6A17.19,17.19,0,0,1,66,32v12.3H60.5V33a7,7,0,0,0-.8-3.7,2.93,2.93,0,0,0-2.7-1.2,3.84,3.84,0,0,0-3.2,1.3,7.34,7.34,0,0,0-1,4.4v10.5H47.3V16.63Z"/>
  <path id="path18" class="text" d="M70,27.23a7.35,7.35,0,0,1,2.2-2.1,9.77,9.77,0,0,1,3-1.1,18.41,18.41,0,0,1,3.3-.3c1,0,2,.1,3.1.2a8.29,8.29,0,0,1,2.8.8,5.85,5.85,0,0,1,2.1,1.7,5,5,0,0,1,.8,2.9v10.5a21.12,21.12,0,0,0,.2,2.6,4.2,4.2,0,0,0,.7,1.9H82.6a2.47,2.47,0,0,1-.4-.9,3.4,3.4,0,0,1-.1-1,7.67,7.67,0,0,1-3.1,1.9,11.19,11.19,0,0,1-3.6.5,8,8,0,0,1-2.7-.4,6.5,6.5,0,0,1-2.2-1.1,5.75,5.75,0,0,1-1.5-1.9,7.22,7.22,0,0,1-.5-2.7,5.81,5.81,0,0,1,.6-2.8,6.55,6.55,0,0,1,1.5-1.8,7.39,7.39,0,0,1,2.2-1,18.43,18.43,0,0,1,2.5-.5l2.4-.3q1.2-.15,2.1-.3a5.23,5.23,0,0,0,1.5-.7,1.43,1.43,0,0,0,.5-1.3,2.65,2.65,0,0,0-.3-1.4,3,3,0,0,0-.8-.8,3.58,3.58,0,0,0-1.1-.4,6.15,6.15,0,0,0-1.4-.1,3.73,3.73,0,0,0-2.5.7,3.36,3.36,0,0,0-1.1,2.3H69.1A6,6,0,0,1,70,27.23ZM80.9,35c-.3.1-.7.2-1.1.3s-.8.1-1.3.2-.9.1-1.3.2L76,36a2.34,2.34,0,0,0-1,.5,2.7,2.7,0,0,0-.7.8,1.94,1.94,0,0,0-.3,1.3,2.13,2.13,0,0,0,.3,1.2,2.7,2.7,0,0,0,.7.8,3.58,3.58,0,0,0,1.1.4,5.28,5.28,0,0,0,1.3.1,5.51,5.51,0,0,0,2.5-.5,4,4,0,0,0,1.3-1.3,3,3,0,0,0,.5-1.5,5.74,5.74,0,0,0,.1-1.2v-2.1A4.05,4.05,0,0,1,80.9,35Z"/>
  <path id="path20" class="text" d="M95.6,24.23V27h.1a5.89,5.89,0,0,1,2.7-2.5,8.44,8.44,0,0,1,3.4-.8,9,9,0,0,1,3.6.6,4.83,4.83,0,0,1,2.2,1.7,8.93,8.93,0,0,1,1.2,2.6,17.19,17.19,0,0,1,.3,3.4v12.3h-5.5V33a7,7,0,0,0-.8-3.7A3,3,0,0,0,100,28a4,4,0,0,0-3.3,1.5,7.34,7.34,0,0,0-1,4.4v10.5H90.2V24.23Z"/>
  <path id="path22" class="text" d="M121.4,27.83a3.8,3.8,0,0,0-2.2.6,4.63,4.63,0,0,0-1.5,1.6,6.56,6.56,0,0,0-.8,2.1,9,9,0,0,0-.2,2.3,16.35,16.35,0,0,0,.2,2.2,6,6,0,0,0,.8,2,5,5,0,0,0,1.4,1.5,3.8,3.8,0,0,0,2.2.6,4.5,4.5,0,0,0,3.1-1.1,4.64,4.64,0,0,0,1.3-3H131a9.22,9.22,0,0,1-3.1,6.1,10,10,0,0,1-6.6,2.1,10.7,10.7,0,0,1-4.1-.8,8.92,8.92,0,0,1-3.2-2.1,9.88,9.88,0,0,1-2.1-3.2,11,11,0,0,1-.7-4.1,11.76,11.76,0,0,1,.7-4.3,11,11,0,0,1,2-3.5,10.45,10.45,0,0,1,3.2-2.3,11.76,11.76,0,0,1,4.3-.8,12.7,12.7,0,0,1,3.4.5,8.7,8.7,0,0,1,2.9,1.4,6.11,6.11,0,0,1,2.1,2.4,8.49,8.49,0,0,1,.9,3.4h-5.4Q125,27.83,121.4,27.83Z"/>
  <rect id="rect24" class="text" x="29.4" y="18.53" width="11.2" height="2.7"/>
  <path id="path26" class="text" d="M139.3,39.53a5.05,5.05,0,0,0,3.6,1.2,5.47,5.47,0,0,0,2.9-.8,4,4,0,0,0,1.5-1.8h4.8a9.75,9.75,0,0,1-3.6,5.2,10.68,10.68,0,0,1-5.8,1.6,11.76,11.76,0,0,1-4.3-.8,9.21,9.21,0,0,1-5.2-5.5,11.76,11.76,0,0,1-.7-4.3,11.58,11.58,0,0,1,.7-4.2,10.78,10.78,0,0,1,2.1-3.4,10.16,10.16,0,0,1,3.2-2.2,11.62,11.62,0,0,1,4.2-.8,8.68,8.68,0,0,1,4.4,1,8.12,8.12,0,0,1,3.1,2.7,12.12,12.12,0,0,1,1.8,3.8,13.28,13.28,0,0,1,.4,4.5H137.9a5.67,5.67,0,0,0,1.4,3.8ZM145.7,29a4.33,4.33,0,0,0-3.1-1.1,4.77,4.77,0,0,0-2.2.5,4,4,0,0,0-1.4,1.1,3.69,3.69,0,0,0-.7,1.4,6.88,6.88,0,0,0-.2,1.3h9a6.83,6.83,0,0,0-1.4-3.2Z"/>
  <path class="text" d="M1,.22H5.08A3.86,3.86,0,0,1,6.69.51a2.63,2.63,0,0,1,1,.71,2.5,2.5,0,0,1,.46.94,4.09,4.09,0,0,1,.12.93A4,4,0,0,1,8.12,4,2.39,2.39,0,0,1,7.66,5a2.43,2.43,0,0,1-1,.71,3.88,3.88,0,0,1-1.61.28H2.61V9.5H1Zm1.62,4.4H5a2.23,2.23,0,0,0,.56-.08,1.54,1.54,0,0,0,.53-.26,1.26,1.26,0,0,0,.39-.46,1.62,1.62,0,0,0,.15-.74,2,2,0,0,0-.13-.75,1.36,1.36,0,0,0-.35-.48,1.5,1.5,0,0,0-.51-.24A3,3,0,0,0,5,1.55H2.61Z"/>
  <path class="text" d="M13.61,0a4.34,4.34,0,0,1,1.87.39,4.16,4.16,0,0,1,1.39,1A4.47,4.47,0,0,1,17.75,3a5.52,5.52,0,0,1,.31,1.87,5.59,5.59,0,0,1-.31,1.89,4.42,4.42,0,0,1-.88,1.54,4,4,0,0,1-1.39,1.05,4.34,4.34,0,0,1-1.87.38,4.3,4.3,0,0,1-1.86-.38,4,4,0,0,1-1.4-1.05,4.59,4.59,0,0,1-.88-1.54,5.85,5.85,0,0,1-.3-1.89A5.77,5.77,0,0,1,9.47,3a4.63,4.63,0,0,1,.88-1.55,4.1,4.1,0,0,1,1.4-1A4.3,4.3,0,0,1,13.61,0Zm0,1.33a2.72,2.72,0,0,0-1.28.29,2.6,2.6,0,0,0-.88.8A3.91,3.91,0,0,0,11,3.56a5.2,5.2,0,0,0-.16,1.3A5.14,5.14,0,0,0,11,6.16a3.69,3.69,0,0,0,.5,1.14,2.63,2.63,0,0,0,4.32,0,3.69,3.69,0,0,0,.5-1.14,5.14,5.14,0,0,0,.16-1.3,5.2,5.2,0,0,0-.16-1.3,3.91,3.91,0,0,0-.5-1.14,2.6,2.6,0,0,0-.88-.8A2.72,2.72,0,0,0,13.61,1.33Z"/>
  <path class="text" d="M18.63.22h1.65L22,7.32h0L23.85.22h1.67l1.82,7.1h0L29.09.22h1.66L28.18,9.5H26.53L24.67,2.41h0L22.75,9.5H21.07Z"/>
  <path class="text" d="M31.81.22h6.68v1.4H33.44V4.06h4.68V5.38H33.44V8.1h5.14V9.5H31.81Z"/>
  <path class="text" d="M40,.22h4.43a3.43,3.43,0,0,1,2.3.66,2.3,2.3,0,0,1,.77,1.85,2.71,2.71,0,0,1-.19,1.1,2.5,2.5,0,0,1-.46.7,1.54,1.54,0,0,1-.51.38L46,5.07v0a1.41,1.41,0,0,1,.45.13,1.14,1.14,0,0,1,.44.33,1.78,1.78,0,0,1,.35.59,2.64,2.64,0,0,1,.14.91,8.57,8.57,0,0,0,.12,1.49,2,2,0,0,0,.38.95H46.11a1.51,1.51,0,0,1-.21-.66,5.69,5.69,0,0,1,0-.7A7,7,0,0,0,45.79,7a2.06,2.06,0,0,0-.29-.77,1.28,1.28,0,0,0-.57-.45A2.6,2.6,0,0,0,44,5.68H41.63V9.5H40Zm1.63,4.23h2.66a1.72,1.72,0,0,0,1.18-.37A1.45,1.45,0,0,0,45.88,3a1.85,1.85,0,0,0-.13-.72,1.09,1.09,0,0,0-.36-.43,1.19,1.19,0,0,0-.52-.21,3.08,3.08,0,0,0-.61-.05H41.63Z"/>
  <path class="text" d="M49.15.22h6.68v1.4h-5V4.06h4.68V5.38H50.78V8.1h5.15V9.5H49.15Z"/>
  <path class="text" d="M57.34.22h3.85A4.39,4.39,0,0,1,63,.58a3.51,3.51,0,0,1,1.27,1A4.22,4.22,0,0,1,65,3.05a6.65,6.65,0,0,1,.24,1.81A6.6,6.6,0,0,1,65,6.67a4.22,4.22,0,0,1-.73,1.47,3.41,3.41,0,0,1-1.27,1,4.39,4.39,0,0,1-1.85.36H57.34Zm1.63,8h1.6a4,4,0,0,0,1.55-.26,2.29,2.29,0,0,0,1-.7,2.65,2.65,0,0,0,.47-1,6.71,6.71,0,0,0,.12-1.31,6.61,6.61,0,0,0-.12-1.3,2.63,2.63,0,0,0-.47-1.06,2.29,2.29,0,0,0-1-.7,4,4,0,0,0-1.55-.25H59Z"/>
  <path class="text" d="M70.34.22h4.51a3.21,3.21,0,0,1,2,.57,2,2,0,0,1,.76,1.73,2,2,0,0,1-.35,1.2,2.09,2.09,0,0,1-1,.78v0a2.07,2.07,0,0,1,1.3.82A2.64,2.64,0,0,1,78,6.92a2.69,2.69,0,0,1-.2,1,2.1,2.1,0,0,1-.61.82,3,3,0,0,1-1.07.54,5,5,0,0,1-1.54.2H70.34ZM72,4.11h2.65a1.44,1.44,0,0,0,1-.33,1.19,1.19,0,0,0,.39-1,1.19,1.19,0,0,0-.35-1,1.56,1.56,0,0,0-1-.28H72Zm0,4.07h2.87A1.6,1.6,0,0,0,76,7.79a1.4,1.4,0,0,0,.41-1.08A1.37,1.37,0,0,0,76,5.65a1.64,1.64,0,0,0-1.15-.37H72Z"/>
  <path class="text" d="M81.91,5.86,78.43.22h1.88l2.46,4.16L85.19.22H87L83.54,5.86V9.5H81.91Z"/>
</svg>
