<svg xmlns="http://www.w3.org/2000/svg" viewBox="0 0 951.78 162.95"><defs><style>.cls-1{fill:#2b2b2b;}.cls-2{fill:#ff3530;}</style></defs><title>Asset 1</title><g id="Layer_2" data-name="Layer 2"><g id="Layer_1-2" data-name="Layer 1"><path class="cls-1" d="M0,161v-8.4c13.4-1.4,14.6-3,14.6-13.4V42.36C14.6,32,13.4,30.36,0,29v-8.4H72.6c31,0,49.2,11.8,49.2,35,0,20.2-18.2,30.4-37.6,32.4,26.6.8,46.6,13,46.6,35,0,25.8-19.4,38-56.2,38ZM53.8,30v53.2h5c17,0,25.8-9.2,25.8-27.2,0-17.8-10-26-26-26Zm0,64v44c0,10.8,3.6,13.6,14,13.6h1.6c13.8,0,23.4-9.2,23.4-29.2,0-18.2-10-28.39-30.2-28.39Z"/><path class="cls-1" d="M239.6,95v5H175.8c-.4,23.79,12.8,38.59,31,38.59,12.8,0,22.2-4.6,29.8-14.6l3.8,2.4c-5.4,22-20.8,36.6-46,36.6-29.6,0-52-19.8-52-53.4,0-35.59,24.6-58.39,53.4-58.39C224.8,51.16,239.6,69.56,239.6,95ZM176,90.76h32c0-19.4-3.8-31.2-14.6-31.2C182.4,59.56,177,72.16,176,90.76Z"/><path class="cls-1" d="M257.4,25.16l-11-5.6v-6l41.8-9.2h6.2v66.8c7.6-9.6,19-20,37.2-20,19.2,0,30.2,11,30.2,32.8v61.39c0,6.4,3.2,7.2,11.2,7.8V161H314.2v-7.8c8-.6,10.6-1.4,10.6-7.8V87c0-8.8-3-14-13.4-14a36.35,36.35,0,0,0-17,4.4v68c0,6.4,2.6,7.2,10.6,7.8V161H246.2v-7.8c8-.6,11.2-1.4,11.2-7.8Z"/><path class="cls-1" d="M472.59,139c0,4.8.6,9,5.4,9a18.85,18.85,0,0,0,6.8-1.2l1.4,5.4a36,36,0,0,1-26.4,10.8c-11.6,0-20-6.2-23-16.8-5.79,8.4-15.39,16.2-30.19,16.2-16.8,0-28.6-9.6-28.6-26.8,0-17.4,12.2-24.59,26.4-29.59l31.79-11.21V74.36c0-9.2-2.59-15.4-10.4-15.4S415,65.36,415,74.76a68.89,68.89,0,0,0,1.8,14l-22.2,3c-5.8-2-9.8-6.8-9.8-14,0-18.2,18.8-26.6,43-26.6,28,0,44.8,8.8,44.8,34.8Zm-36.4,1.4v-37l-11,4.2c-7,2.6-11.6,6.4-11.6,17.8,0,10.2,3.8,17.8,13.8,17.8C430.6,143.15,433,142.15,436.19,140.35Z"/><path class="cls-1" d="M568.59,87c0-8.8-3-14-13.4-14a37.82,37.82,0,0,0-17.2,4.4v68c0,6.4,2.8,7.2,10.8,7.8V161H490v-7.8c8-.6,11.2-1.4,11.2-7.8V75.16l-11-6.8v-5.6L532,51.16h6.8l-.8,20c7.6-9.6,19.2-20,37.2-20,19.4,0,30.4,10.8,30.4,32.8v61.39c0,6.4,3.2,7.2,11.2,7.8V161H558v-7.8c8-.6,10.6-1.4,10.6-7.8Z"/><path class="cls-1" d="M686,138c11.8,0,20.2-4,26.6-13.2l4.4,2.8c-6.6,24.4-22.8,35.4-45.2,35.4-27.8,0-49.2-19.8-49.2-52.6,0-33.79,21.6-59.19,54.8-59.19,20.2,0,36.6,7.8,36.6,25.4,0,7.6-4.4,12.6-8.8,14.6h-19a80.1,80.1,0,0,0,.8-11.4c0-11.6-3.2-19.6-12.8-19.6-12.4,0-19.6,15.8-19.6,36.4C654.59,122.15,666,138,686,138Z"/><path class="cls-1" d="M820.39,95v5h-63.8c-.4,23.79,12.8,38.59,31,38.59,12.8,0,22.2-4.6,29.8-14.6l3.8,2.4c-5.4,22-20.8,36.6-46,36.6-29.6,0-52-19.8-52-53.4,0-35.59,24.6-58.39,53.4-58.39C805.59,51.16,820.39,69.56,820.39,95Zm-63.6-4.2h32c0-19.4-3.8-31.2-14.6-31.2C763.19,59.56,757.79,72.16,756.79,90.76Z"/><path class="cls-1" d="M892.18,19.56v-6L934,4.36h6.2V138c0,6.8.4,9.8,6.8,10l4.8.2V156l-42.4,7h-6.8l.6-18.8c-8.2,12.2-19,18.8-32.4,18.8-23.6,0-40.4-18.4-40.4-51,0-39,23.6-60,53-60,8.2,0,15.2,2.2,19.8,6V25.16Zm-24.8,81.19c0,24.6,8.8,41.4,24.4,41.4a22.92,22.92,0,0,0,11.4-2.8V83.76c0-13.4-3.8-20.6-14.2-20.6C874.78,63.16,867.38,78.16,867.38,100.75Z"/><path class="cls-2" d="M196.41,0V18.6h18.7v7.2h-18.7V44.4h-7.1V25.8h-18.6V18.6h18.6V0Z"/></g></g></svg>